<svg id="图层_1" data-name="图层 1" xmlns="http://www.w3.org/2000/svg" viewBox="0 0 552.32873 486.27592"><defs><style>.cls-1{stroke:#000;stroke-miterlimit:10;stroke-width:3px;}</style></defs><title>logo</title><path class="cls-1" d="M394.83522,561.27891c-95.86178,2.7655-168.24725-50.65844-196.13064-137.18733-2.04192-6.33662-5.16177-10.27311-12.16706-11.31608-26.26487-3.91041-46.63653-17.97064-62.82288-38.30567a35.28252,35.28252,0,0,0-18.13193-12.28427c-17.919-5.55658-35.68064-11.649-52.73989-19.539a84.11315,84.11315,0,0,1-13.691-7.71479c-11.5814-8.29362-12.07577-18.55634-1.227-28.02453,10.61929-9.26786,23.35556-15.093,36.47829-19.63911,9.02456-3.12631,12.495-7.66735,12.80154-17.76642,1.4515-47.82663,22.61763-84.78845,64.04512-109.33586,6.5252-3.86643,9.53367-7.99743,10.06816-15.74787a199.67085,199.67085,0,0,1,11.47573-53.76446c5.30324-14.77854,11.06615-16.02178,22.4718-4.85442C209.2883,99.529,220.64335,115.42857,231.295,131.80348c3.74621,5.75913,8.21654,8.53134,15.21332,9.81754,29.33625,5.39272,57.48116,14.89532,75.65058,40.072,8.16849,11.31869,13.71015,12.91889,27.20283,9.40436,36.75415-9.57348,71.45658-3.84813,100.57855,22.985a40.7158,40.7158,0,0,1,5.16693,5.9191c1.05291,1.43865,2.41353,3.42891.32658,4.86317-.92829.638-2.9631.43241-4.10863-.15066-4.00673-2.03943-7.84923-4.40258-11.74617-6.65646-29.72512-17.192-60.75737-23.03848-93.9092-10.94344-14.01683,5.11387-14.91344,7.853-6.21461,19.633,3.78923,5.13135,7.76954,10.1931,9.84878,16.3207,2.877,8.47871-1.14377,14.245-8.87677,10.87906-14.39916-6.26747-22.63288-.77064-32.21753,9.52925-11.0872,11.9146-26.66432,17.96042-41.94648,23.34451-6.909,2.43415-9.6025,5.00651-6.44967,12.89437,8.51993,21.31549,9.21684,43.24356,1.10205,64.848-2.70535,7.20257,1.0611,11.14033,4.38249,16.13825,4.12361,6.205,12.86176,11.94841,7.004,20.51449-5.5384,8.09907-15.02613,4.93743-21.76725,1.9812-13.68591-6.00182-23.7086,1.88618-34.71882,6.67412-6.0128,2.61474-3.82643,7.3247-2.36328,11.53732C234.42789,481.79972,273.14429,524.70291,336.597,540.132c58.51227,14.22784,115.84926,11.24366,164.23679-29.38972,53.74962-45.13612,72.63983-104.57906,59.8188-172.92208-8.50291-45.32531-42.82-65.12474-84.34518-73.55558-65.7678-13.3528-127.71189,18.60528-160.752,81.13057-1.99883,3.78267-2.41745,12.038-8.37067,9.54489-4.72121-1.97711-1.02727-8.90936.35153-13.34171,12.3684-39.76,40.35526-65.31649,77.147-81.6087,43.95967-19.46632,88.37607-18.4657,131.88857,1.92038,36.68806,17.18874,57.05886,46.967,61.55105,86.80982,8.73722,77.495-26.249,154.53673-94.13835,191.45969C455.34169,555.75756,424.7227,563.44225,394.83522,561.27891ZM101.34675,280.268c.54577,22.47618,9.88551,51.37178,27.15891,77.71945a94.93114,94.93114,0,0,0,39.2705,34.46421c31.96741,15.16778,64.271,3.53674,78.46338-28.84433,8.378-19.11524,7.32058-38.64559.97734-58.24284-2.657-8.20871-6.22341-12.96675-16.09024-10.2175-5.165,1.43914-11.55044,1.871-15.02929-4.34036-3.46875-6.19334,2.31719-25.60083,9.3753-29.63069,10.14216-5.79064,12.53047,4.38144,17.0939,9.41077,2.94258,3.243,4.361,7.98015,10.4737,5.97757,17.95418-5.882,35.39214-12.65915,49.10672-26.35428,25.587-25.55076,22.82787-56.24157-7.59781-75.69145-27.91514-17.845-58.43845-23.80275-91.53262-18.811C144.45846,164.54,101.38392,212.89874,101.34675,280.268Zm4.55859,67.53543c-6.40841-15.65372-12.16427-29.77166-15.37888-44.72219-1.08521-5.04706-4.762-4.91307-8.80809-3.29474A219.60064,219.60064,0,0,0,51.4452,314.61817c-6.3247,3.73886-6.94761,7.52977-.10643,11.326C68.0535,335.21923,85.6775,342.17773,105.90534,347.80338Zm67.81157-207.63245c-.33709,5.26165.98909,8.31813,7.02608,6.56915a172.34445,172.34445,0,0,1,32.874-6.44914c5.08825-.44843,8.02516-2.45392,3.82534-7.75773-8.7976-11.11017-17.43768-22.34892-26.41931-33.308-4.62266-5.64038-7.46066-3.13823-8.78949,2.75817Q177.93266,121.06758,173.71691,140.17093Z" transform="translate(-28.61461 -76.86204)"/><path class="cls-1" d="M547.088,201.98894c-.13571,12.03892-11.684,27.163-22.52476,30.26737-10.36187,2.96724-20.72085-7.13271-18.43778-18.72123,1.91085-9.69934,6.54944-18.17583,14.74175-24.357,5.62445-4.24374,11.53025-4.94881,17.8616-2.05732C545.4517,190.191,547.43936,195.87416,547.088,201.98894Z" transform="translate(-28.61461 -76.86204)"/><path class="cls-1" d="M153.7441,456.40066c.29322-10.47624,3.22048-18.76876,11.11365-24.44733,6.731-4.84241,11.25389-2.85984,12.18755,5.29429.7634,6.66729.6174,13.43932,1.39469,20.10423.83942,7.19786,1.0333,14.30417-7.92772,15.70269-8.81455,1.37564-13.82954-4.12457-16.20412-12.15784A21.87667,21.87667,0,0,1,153.7441,456.40066Z" transform="translate(-28.61461 -76.86204)"/><path class="cls-1" d="M364.27978,157.24925c-4.87635,1.6738-9.73278,3.58093-14.7324,4.97412-3.44006.95858-7.53535,2.69229-10.0078-1.61813-1.995-3.478.14993-6.55972,2.38543-9.05374,3.70987-4.13884,7.37791-8.45512,11.72286-11.85378,7.59973-5.94459,16.86244-5.53794,19.51039.7556C376.815,149.14453,370.50789,153.27635,364.27978,157.24925Z" transform="translate(-28.61461 -76.86204)"/><path d="M233.2112,199.78848c-.496,2.00248-2.62627,6.20384,4.52261,5.12685,3.72934-.56184,5.33761,2.14719,6.11375,5.24582.80817,3.22635-1.46316,5.10649-3.86927,6.02341-7.34934,2.80071-14.35547,12.62866-21.88125,7.2212-7.14008-5.13033,1.145-13.58345,2.01129-20.64233a36.79887,36.79887,0,0,1,2.18672-7.52805c1.28141-3.64108,2.73248-7.3051,7.79224-5.99274C235.2164,190.573,234.73729,194.27841,233.2112,199.78848Z" transform="translate(-28.61461 -76.86204)"/><path d="M175.36336,324.76292c.46354,5.1793-.06977,8.2562-4.44855,9.14542-4.61084.93637-5.89674-2.1918-6.85367-5.557-1.15966-4.07822-1.48811-9.0171-7.46852-3.66583-2.40894,2.15551-4.9568.37363-6.9108-1.52056-1.8856-1.82782-1.6909-3.9791-.4984-6.13759a9.1829,9.1829,0,0,1,1.09307-1.94976c5.32975-5.61785,7.20915-19.21823,15.70955-15.88638C175.63425,302.97294,171.973,317.11146,175.36336,324.76292Z" transform="translate(-28.61461 -76.86204)"/></svg>