<svg id="图层_1" data-name="图层 1" xmlns="http://www.w3.org/2000/svg" viewBox="0 0 136.04 120.04"><defs><style>.cls-1{stroke:#000;stroke-miterlimit:10;stroke-width:3px;}</style></defs><title>logo</title><path class="cls-1" d="M337,375.07c-23.22.67-40.75-12.27-47.5-33.22a3.4,3.4,0,0,0-2.95-2.74c-6.36-.95-11.3-4.36-15.22-9.28a8.53,8.53,0,0,0-4.39-3,101.88,101.88,0,0,1-12.77-4.73,20.06,20.06,0,0,1-3.32-1.87c-2.8-2-2.92-4.49-.29-6.78a26,26,0,0,1,8.83-4.76c2.19-.76,3-1.86,3.1-4.3.35-11.59,5.48-20.54,15.51-26.48a4.29,4.29,0,0,0,2.44-3.82,48.51,48.51,0,0,1,2.78-13c1.29-3.58,2.68-3.88,5.44-1.17a64,64,0,0,1,8.73,11.14,5.06,5.06,0,0,0,3.68,2.38c7.11,1.3,13.92,3.6,18.32,9.7,2,2.74,3.33,3.13,6.59,2.28,8.9-2.32,17.31-.93,24.36,5.57a9,9,0,0,1,1.25,1.43c.26.35.59.83.08,1.18a1.19,1.19,0,0,1-1,0c-1-.49-1.9-1.07-2.85-1.61-7.2-4.17-14.71-5.58-22.74-2.65-3.4,1.24-3.61,1.9-1.51,4.75a14.84,14.84,0,0,1,2.39,4c.7,2.05-.28,3.45-2.15,2.63-3.49-1.52-5.48-.19-7.8,2.31-2.69,2.88-6.46,4.35-10.16,5.65-1.68.59-2.33,1.21-1.56,3.12a21.17,21.17,0,0,1,.26,15.71c-.65,1.74.26,2.7,1.06,3.91,1,1.5,3.12,2.89,1.7,5s-3.64,1.19-5.27.48c-3.32-1.46-5.74.45-8.41,1.61-1.46.64-.93,1.78-.57,2.8,5.08,14.62,14.45,25,29.82,28.75,14.17,3.45,28.06,2.72,39.78-7.12,13-10.93,17.59-25.32,14.48-41.88-2.05-11-10.37-15.77-20.42-17.81-15.93-3.23-30.93,4.51-38.93,19.65-.49.91-.59,2.91-2,2.31-1.14-.48-.25-2.16.08-3.23,3-9.63,9.78-15.82,18.69-19.77,10.64-4.71,21.4-4.47,31.94.47,8.88,4.16,13.82,11.37,14.91,21,2.11,18.77-6.36,37.43-22.8,46.37A39.37,39.37,0,0,1,337,375.07ZM265.94,307c.13,5.44,2.39,12.44,6.57,18.82a23,23,0,0,0,9.52,8.34c7.74,3.68,15.56.86,19-7,2-4.63,1.77-9.36.24-14.11-.65-2-1.51-3.14-3.9-2.47-1.25.35-2.8.45-3.64-1.05s.56-6.2,2.27-7.18c2.46-1.4,3,1.06,4.14,2.28.71.79,1.05,1.93,2.54,1.45,4.34-1.43,8.57-3.07,11.89-6.38,6.2-6.19,5.53-13.63-1.84-18.34a31.17,31.17,0,0,0-22.17-4.55C276.38,279,266,290.7,265.94,307Zm1.1,16.35a65,65,0,0,1-3.72-10.83c-.27-1.22-1.16-1.19-2.14-.8a54,54,0,0,0-7.33,3.59c-1.53.91-1.68,1.83,0,2.75A59.56,59.56,0,0,0,267,323.37Zm16.42-50.28c-.08,1.27.24,2,1.71,1.59a41.39,41.39,0,0,1,8-1.57c1.23-.1,1.94-.59.92-1.87-2.13-2.7-4.22-5.42-6.39-8.07-1.12-1.37-1.81-.76-2.13.67C284.83,266.92,284.15,270,283.46,273.09Z" transform="translate(-247.19 -256.62)"/><path class="cls-1" d="M373.89,288.06c0,2.91-2.83,6.58-5.46,7.33s-5-1.73-4.46-4.54a9.43,9.43,0,0,1,3.57-5.9,4,4,0,0,1,4.33-.49A3.42,3.42,0,0,1,373.89,288.06Z" transform="translate(-247.19 -256.62)"/><path class="cls-1" d="M278.63,349.67c.07-2.54.78-4.54,2.69-5.92,1.63-1.17,2.72-.69,2.95,1.28.19,1.62.15,3.26.34,4.87s.25,3.47-1.92,3.81-3.35-1-3.93-2.95A5.44,5.44,0,0,1,278.63,349.67Z" transform="translate(-247.19 -256.62)"/><path class="cls-1" d="M329.62,277.22c-1.18.41-2.36.87-3.57,1.21-.84.23-1.83.65-2.43-.4-.48-.84,0-1.58.58-2.19A23.34,23.34,0,0,1,327,273c1.84-1.44,4.09-1.34,4.73.18C332.65,275.26,331.12,276.26,329.62,277.22Z" transform="translate(-247.19 -256.62)"/><path d="M297.87,287.52c-.12.49-.63,1.51,1.1,1.25.9-.14,1.29.52,1.48,1.27a1.22,1.22,0,0,1-.94,1.45c-1.78.68-3.47,3.06-5.3,1.75s.28-3.29.49-5a9.21,9.21,0,0,1,.53-1.82c.31-.88.66-1.77,1.89-1.45S298.24,286.19,297.87,287.52Z" transform="translate(-247.19 -256.62)"/><path d="M283.86,317.79c.12,1.26,0,2-1.07,2.22s-1.43-.53-1.66-1.35c-.28-1-.36-2.18-1.81-.89-.59.52-1.2.09-1.68-.37a1.13,1.13,0,0,1-.12-1.48,2.14,2.14,0,0,1,.27-.47c1.29-1.37,1.74-4.66,3.8-3.85C283.93,312.51,283,315.94,283.86,317.79Z" transform="translate(-247.19 -256.62)"/></svg>